<?xml version="1.0" encoding="UTF-8" standalone="no"?>
<!DOCTYPE svg PUBLIC "-//W3C//DTD SVG 1.1//EN"
 "http://www.w3.org/Graphics/SVG/1.1/DTD/svg11.dtd">
<!-- Generated by graphviz version 2.43.20190912.0211 (20190912.0211)
 -->
<!-- Title: TaskGraph Pages: 1 -->
<svg width="308pt" height="188pt"
 viewBox="0.00 0.00 308.04 188.00" xmlns="http://www.w3.org/2000/svg" xmlns:xlink="http://www.w3.org/1999/xlink">
<g id="graph0" class="graph" transform="scale(1 1) rotate(0) translate(4 184)">
<title>TaskGraph</title>
<polygon fill="white" stroke="transparent" points="-4,4 -4,-184 304.04,-184 304.04,4 -4,4"/>
<!-- fetch_post -->
<g id="node1" class="node">
<title>fetch_post</title>
<ellipse fill="none" stroke="black" cx="136.84" cy="-162" rx="58.49" ry="18"/>
<text text-anchor="middle" x="136.84" y="-158.3" font-family="Times,serif" font-size="14.00">fetch_post</text>
</g>
<!-- fetch_user -->
<g id="node2" class="node">
<title>fetch_user</title>
<ellipse fill="none" stroke="black" cx="136.84" cy="-90" rx="59.29" ry="18"/>
<text text-anchor="middle" x="136.84" y="-86.3" font-family="Times,serif" font-size="14.00">fetch_user</text>
</g>
<!-- fetch_post&#45;&gt;fetch_user -->
<g id="edge1" class="edge">
<title>fetch_post&#45;&gt;fetch_user</title>
<path fill="none" stroke="black" d="M136.84,-143.7C136.84,-135.98 136.84,-126.71 136.84,-118.11"/>
<polygon fill="black" stroke="black" points="140.34,-118.1 136.84,-108.1 133.34,-118.1 140.34,-118.1"/>
</g>
<!-- email_info -->
<g id="node3" class="node">
<title>email_info</title>
<ellipse fill="none" stroke="black" cx="57.84" cy="-18" rx="57.69" ry="18"/>
<text text-anchor="middle" x="57.84" y="-14.3" font-family="Times,serif" font-size="14.00">email_info</text>
</g>
<!-- fetch_user&#45;&gt;email_info -->
<g id="edge2" class="edge">
<title>fetch_user&#45;&gt;email_info</title>
<path fill="none" stroke="black" d="M118.52,-72.76C108.15,-63.58 95.02,-51.94 83.62,-41.84"/>
<polygon fill="black" stroke="black" points="85.87,-39.16 76.07,-35.15 81.23,-44.4 85.87,-39.16"/>
</g>
<!-- gravatar_image -->
<g id="node4" class="node">
<title>gravatar_image</title>
<ellipse fill="none" stroke="black" cx="216.84" cy="-18" rx="83.39" ry="18"/>
<text text-anchor="middle" x="216.84" y="-14.3" font-family="Times,serif" font-size="14.00">gravatar_image</text>
</g>
<!-- fetch_user&#45;&gt;gravatar_image -->
<g id="edge3" class="edge">
<title>fetch_user&#45;&gt;gravatar_image</title>
<path fill="none" stroke="black" d="M155.4,-72.76C165.75,-63.71 178.82,-52.27 190.24,-42.28"/>
<polygon fill="black" stroke="black" points="192.61,-44.85 197.84,-35.63 188,-39.58 192.61,-44.85"/>
</g>
</g>
</svg>
